:SAMPLES-PER-SECOND 30
:FULLY-SPECIFIED
:DEGREES
327
root  37.1822 39.0195 10.6016 -69.7494 85.512 -67.387
RightUpLeg  9.38298 -9.82859 2.12947
RightLeg  15.2524 -15.6336 2.07551
RightFoot  -17.9312 -0.176378 -0.944075
RightToes  0.00048216 0.542163 -0.142577
Spine  12.7578 1.57337 11.6568
Spine1  5.92691 4.69232 -8.01534
HEad  -7.08791 -28.0338 3.76227
LeftShoulder1  8.51417 -12.9898 -44.9826
LeftArm  -6.2397 20.0451 -23.9485
LeftForeArm  23.3746 -24.9432 -4.10231
LeftHand  -0.25398 0.0180481 5.50724
RightShoulder  5.13667 9.01735 35.0616
RightArm  0.910089 15.4698 28.8335
RightForeArm  -4.49424 19.5409 5.71243
RightHand  -1.13112 2.41178 -16.9798
LeftUpLeg  -18.6558 16.7706 -2.10711
LeftLeg  2.46583 29.0703 -8.00941
LeftFoot  3.64549 0.664993 -5.27383
LeftToes  1.06246e-005 4.65856e-005 -8.18501e-006
328
root  38.5764 38.6743 10.8937 -96.5118 85.4112 -94.2518
RightUpLeg  11.354 -12.4584 2.12148
RightLeg  16.6628 -14.6079 1.83451
RightFoot  -19.3013 -0.124467 0.0801706
RightToes  0.00048216 0.542163 -0.142577
Spine  11.6147 1.57826 11.0372
Spine1  6.36127 4.55251 -8.0784
HEad  -6.39404 -29.199 4.83692
LeftShoulder1  8.38456 -12.8615 -44.6307
LeftArm  -5.6403 20.5807 -23.4338
LeftForeArm  22.199 -23.2308 -3.84258
LeftHand  -0.25398 0.0180481 5.50724
RightShoulder  5.00922 8.75046 34.9185
RightArm  1.63142 15.7976 29.3475
RightForeArm  -5.45863 20.9437 5.42851
RightHand  -1.13954 2.35481 -17.2211
LeftUpLeg  -16.5775 8.76098 0.270742
LeftLeg  -5.69945 47.2849 -16.3087
LeftFoot  3.24107 -0.131912 0.983915
LeftToes  1.06246e-005 4.65856e-005 -8.18501e-006
329
root  39.9923 38.3751 11.1714 -119.548 84.9767 -117.391
RightUpLeg  13.3688 -19.7024 -0.0035076
RightLeg  19.0944 -8.21557 1.23466
RightFoot  -20.4936 0.0573266 2.36401
RightToes  0.00048216 0.542163 -0.142577
Spine  11.0524 1.87838 9.48289
Spine1  6.64745 4.75286 -7.89933
HEad  -5.68256 -30.7878 5.91196
LeftShoulder1  8.38381 -12.817 -44.7529
LeftArm  -5.39032 21.0073 -22.4371
LeftForeArm  21.6103 -21.8654 -3.78661
LeftHand  -0.25398 0.0180481 5.50724
RightShoulder  4.98897 8.63419 35.1386
RightArm  2.21501 14.8927 29.4147
RightForeArm  -6.48098 22.6173 5.29653
RightHand  -1.18216 2.50655 -17.519
LeftUpLeg  -16.4939 8.37866 -1.17522
LeftLeg  -6.21231 52.1472 -17.3128
LeftFoot  1.1845 -1.33584 12.1373
LeftToes  1.06246e-005 4.65856e-005 -8.18501e-006
330
root  41.3772 38.1622 11.4234 -143.063 84.5435 -140.809
RightUpLeg  14.901 -29.257 -4.56146
RightLeg  23.9283 1.80509 0.640418
RightFoot  -20.1771 0.423818 7.408
RightToes  0.00048216 0.542163 -0.142577
Spine  11.4533 2.28797 6.6137
Spine1  6.78808 5.01595 -7.43096
HEad  -5.02747 -31.9705 6.4921
LeftShoulder1  8.51994 -12.872 -45.3505
LeftArm  -6.01117 21.2791 -21.0745
LeftForeArm  21.3028 -20.8755 -3.82361
LeftHand  -0.25398 0.0180481 5.50724
RightShoulder  5.15836 8.81978 35.877
RightArm  2.78913 13.646 29.1126
RightForeArm  -6.73624 23.4803 5.35085
RightHand  -1.26611 2.96246 -17.7602
LeftUpLeg  -16.9939 12.7207 -4.78579
LeftLeg  0.127489 47.3123 -11.4484
LeftFoot  -1.57287 -1.84378 21.336
LeftToes  1.06246e-005 4.65856e-005 -8.18501e-006
331
root  42.7027 38.0054 11.6435 -165.165 83.0837 -162.788
RightUpLeg  12.3547 -28.5442 -6.72996
RightLeg  33.4285 2.12031 1.19746
RightFoot  -14.9841 0.294498 13.1454
RightToes  0.00048216 0.542163 -0.142577
Spine  12.4905 2.49463 3.59651
Spine1  6.48071 4.91486 -7.0065
HEad  -3.88885 -31.7579 6.09219
LeftShoulder1  8.66567 -13.012 -45.7505
LeftArm  -7.22691 21.1373 -19.9796
LeftForeArm  20.8274 -19.8745 -3.87465
LeftHand  -0.25398 0.0180481 5.50724
RightShoulder  5.40443 9.1461 36.7236
RightArm  3.8547 12.9255 29.3041
RightForeArm  -5.9783 22.5839 5.30507
RightHand  -1.26052 3.1143 -17.3814
LeftUpLeg  -20.2144 24.6563 -11.6985
LeftLeg  11.5372 32.4632 -0.49928
LeftFoot  -4.82975 -1.2784 22.4933
LeftToes  1.06246e-005 4.65856e-005 -8.18501e-006
332
root  43.8265 37.9386 11.8456 -179.347 80.3833 -177.123
RightUpLeg  5.91335 -27.1895 -8.23611
RightLeg  46.2054 2.06185 1.9852
RightFoot  -3.33622 -1.02109 14.8061
RightToes  0.00048216 0.542163 -0.142577
Spine  14.3581 2.33015 1.22324
Spine1  5.84044 4.54734 -7.17499
HEad  -1.93433 -29.6192 4.6319
LeftShoulder1  8.74277 -13.2306 -45.5484
LeftArm  -8.53067 20.2663 -19.6468
LeftForeArm  20.4556 -18.9005 -3.91763
LeftHand  -0.25398 0.0180481 5.50724
RightShoulder  5.55595 9.411 37.0121
RightArm  4.13929 12.9948 30.3887
RightForeArm  -3.02749 20.0779 5.55727
RightHand  -1.04243 2.3397 -15.7804
LeftUpLeg  -23.3366 34.2348 -18.3981
LeftLeg  16.3804 19.2728 4.63803
LeftFoot  -6.61981 -0.805345 20.2998
LeftToes  1.06246e-005 4.65856e-005 -8.18501e-006
333
root  44.6708 37.8304 12.0607 173.542 77.2727 175.58
RightUpLeg  -2.59599 -24.8592 -8.81771
RightLeg  58.3708 1.83128 2.72949
RightFoot  8.08721 -2.01766 12.106
RightToes  0.00048216 0.542163 -0.142577
Spine  17.2583 2.10392 -0.247035
Spine1  5.29139 4.27241 -7.99154
HEad  0.261945 -25.9088 1.7802
LeftShoulder1  8.79441 -13.508 -45.0518
LeftArm  -9.65166 18.5856 -20.0135
LeftForeArm  20.756 -18.7386 -3.86469
LeftHand  -0.25398 0.0180481 5.50724
RightShoulder  5.62937 9.65876 36.767
RightArm  2.52454 13.8015 31.6251
RightForeArm  2.31498 16.9966 6.32654
RightHand  -0.717239 0.938027 -13.2436
LeftUpLeg  -23.9578 35.3369 -20.5711
LeftLeg  19.3696 15.491 6.24269
LeftFoot  -7.93262 -0.519839 18.9434
LeftToes  1.06246e-005 4.65856e-005 -8.18501e-006
334
root  45.4141 37.7508 12.3084 171.225 73.9897 173.268
RightUpLeg  -10.3555 -22.3206 -8.84254
RightLeg  66.8404 1.21658 2.41051
RightFoot  12.4846 -1.73909 8.56658
RightToes  0.00048216 0.542163 -0.142577
Spine  20.3627 1.89061 -0.660577
Spine1  5.31986 4.09768 -8.69952
HEad  1.96437 -21.069 -1.30503
LeftShoulder1  8.88682 -13.8005 -44.7431
LeftArm  -10.4964 16.1979 -20.6816
LeftForeArm  21.8162 -20.0257 -3.71104
LeftHand  -0.25398 0.0180481 5.50724
RightShoulder  5.72716 9.97981 36.4811
RightArm  0.208293 15.2416 32.2512
RightForeArm  7.50616 14.3316 7.00769
RightHand  -0.511919 -0.100211 -11.2813
LeftUpLeg  -22.9014 33.4664 -20.1611
LeftLeg  21.6398 14.4349 6.57255
LeftFoot  -9.33761 -0.271314 18.5547
LeftToes  1.06246e-005 4.65856e-005 -8.18501e-006
335
root  46.2019 37.8674 12.5865 171.766 70.0658 173.608
RightUpLeg  -16.5413 -20.458 -8.80238
RightLeg  70.1585 0.38732 0.406182
RightFoot  11.3115 -1.17082 6.22277
RightToes  0.00048216 0.542163 -0.142577
Spine  22.7797 1.51414 -0.418086
Spine1  6.04876 3.79622 -8.77759
HEad  3.47242 -15.6773 -3.75238
LeftShoulder1  9.00684 -14.0982 -44.5734
LeftArm  -10.9511 13.2921 -21.3728
LeftForeArm  23.4213 -22.5096 -3.70338
LeftHand  -0.25398 0.0180481 5.50724
RightShoulder  5.81827 10.2545 36.2998
RightArm  -1.65606 16.9082 32.4087
RightForeArm  10.5062 12.5546 7.34722
RightHand  -0.484475 -0.298862 -11.0251
LeftUpLeg  -21.1373 30.4753 -18.9558
LeftLeg  22.2948 13.4951 6.33933
LeftFoot  -9.77662 -0.18067 17.484
LeftToes  1.06246e-005 4.65856e-005 -8.18501e-006
336
root  47.0107 38.0939 12.9169 173.524 65.4364 174.7
RightUpLeg  -21.4006 -19.1388 -8.92558
RightLeg  68.6069 -0.415471 -1.91621
RightFoot  8.46444 -0.881196 5.38142
RightToes  0.00048216 0.542163 -0.142577
Spine  24.6866 1.05354 0.0697972
Spine1  6.82308 3.3744 -8.38654
HEad  5.09897 -10.6717 -5.69166
LeftShoulder1  9.12981 -14.4326 -44.328
LeftArm  -10.8322 10.1362 -21.8873
LeftForeArm  25.4279 -25.5474 -4.11387
LeftHand  -0.25398 0.0180481 5.50724
RightShoulder  5.81114 10.3223 36.0469
RightArm  -2.60705 18.1675 32.5499
RightForeArm  11.0303 11.8784 7.42711
RightHand  -0.55313 0.0360243 -11.8484
LeftUpLeg  -19.6961 27.0665 -17.6911
LeftLeg  22.1442 12.304 5.78321
LeftFoot  -9.27587 -0.231732 15.8751
LeftToes  1.06246e-005 4.65856e-005 -8.18501e-006
337
root  47.808 38.3301 13.3238 175.402 60.6123 175.771
RightUpLeg  -24.9201 -17.7333 -9.16123
RightLeg  63.2939 -1.61594 -4.04568
RightFoot  6.15136 -0.641297 4.43329
RightToes  0.00048216 0.542163 -0.142577
Spine  26.8265 0.736941 0.639652
Spine1  7.01679 3.02309 -7.75935
HEad  6.1199 -6.85617 -7.08392
LeftShoulder1  9.28907 -14.8116 -44.1588
LeftArm  -9.86906 6.94011 -22.0437
LeftForeArm  27.2251 -28.8248 -4.75295
LeftHand  -0.25398 0.0180481 5.50724
RightShoulder  5.74523 10.2744 35.7223
RightArm  -2.53376 18.8251 32.6212
RightForeArm  9.72035 12.2833 7.36484
RightHand  -0.646928 0.555196 -12.7034
LeftUpLeg  -18.6627 24.0263 -16.4073
LeftLeg  21.7113 10.6638 4.97518
LeftFoot  -8.63847 -0.299118 14.7885
LeftToes  1.06246e-005 4.65856e-005 -8.18501e-006
